<svg id="Filled_outline" height="512" viewBox="0 0 64 64" width="512" xmlns="http://www.w3.org/2000/svg" data-name="Filled outline"><rect fill="#b38652" height="48" rx="1" width="4" x="3" y="8"/><rect fill="#b38652" height="48" rx="1" width="4" x="57" y="8"/><path d="m3 12h58" fill="none" stroke="#898989" stroke-miterlimit="10" stroke-width="2"/><path d="m32 10h-6a1 1 0 0 0 -1 1 2 2 0 0 1 -2 2 2 2 0 0 1 -2-2 1 1 0 0 0 -1-1h-6a1 1 0 0 0 -1 1v5a1 1 0 0 0 1 1h2a1 1 0 0 1 1 1v9a1 1 0 0 0 1 1h10a1 1 0 0 0 1-1v-9a1 1 0 0 1 1-1h2a1 1 0 0 0 1-1v-5a1 1 0 0 0 -1-1z" fill="#ffd04a"/><path d="m38 10a1 1 0 0 0 -1 1v29a1 1 0 0 0 1 1h2.11283a1 1 0 0 0 .99287-.88085l2.39786-19.98215a.5.5 0 0 1 .99288 0l2.39786 19.98215a1 1 0 0 0 .99287.88085h2.11283a1 1 0 0 0 1-1v-29a1 1 0 0 0 -1-1z" fill="#5187b3"/><rect fill="#e6c197" height="4" rx="1" width="22" x="11" y="36"/><path d="m13 40v14a2 2 0 0 0 2 2h14a2 2 0 0 0 2-2v-14z" fill="#ccab86"/><path d="m60 7h-2a2.0026 2.0026 0 0 0 -2 2v2h-2v2h2v42a2.0026 2.0026 0 0 0 2 2h2a2.0026 2.0026 0 0 0 2-2v-46a2.0026 2.0026 0 0 0 -2-2zm-2 2h2l.00006 2h-2.00006zm0 46v-42h2.00018l.00182 42z"/><path d="m10 13v-2h-2v-2a2.0026 2.0026 0 0 0 -2-2h-2a2.0026 2.0026 0 0 0 -2 2v46a2.0026 2.0026 0 0 0 2 2h2a2.0026 2.0026 0 0 0 2-2v-42zm-4-4 .00006 2h-2.00006v-2zm.002 46h-2.002v-42h2.00018z"/><path d="m32 9h-2v-2h-2v2h-2a2.0026 2.0026 0 0 0 -2 2 1 1 0 0 1 -2 0 2.0026 2.0026 0 0 0 -2-2h-2v-2h-2v2h-2a2.0026 2.0026 0 0 0 -2 2v5a2.0026 2.0026 0 0 0 2 2h2v9a2.0026 2.0026 0 0 0 2 2h10a2.0026 2.0026 0 0 0 2-2v-9h2a2.0026 2.0026 0 0 0 2-2v-5a2.0026 2.0026 0 0 0 -2-2zm0 7h-2a2.0026 2.0026 0 0 0 -2 2v9h-10v-9a2.0026 2.0026 0 0 0 -2-2h-2v-5h2v2h2v-2h2a3 3 0 0 0 6 0h2v2h2v-2h2z"/><path d="m50 9h-2v-2h-2v2h-4v-2h-2v2h-2a2.0026 2.0026 0 0 0 -2 2v29a2.0026 2.0026 0 0 0 2 2h2.11328a2.00145 2.00145 0 0 0 1.98535-1.76172l1.90137-15.84375 1.90137 15.84375a2.00145 2.00145 0 0 0 1.98535 1.76172h2.11328a2.0026 2.0026 0 0 0 2-2v-29a2.0026 2.0026 0 0 0 -2-2zm0 31h-2.1123l-2.39844-19.98242a1.49994 1.49994 0 0 0 -2.97852 0l-2.39746 19.98242h-2.11328l-.002-29h2.002v2h2v-2h4v2h2v-2h2z"/><path d="m32 35v-1a3.00328 3.00328 0 0 0 -3-3h-2a3.00328 3.00328 0 0 0 -3 3v1h-4v-1a3.00328 3.00328 0 0 0 -3-3h-2a3.00328 3.00328 0 0 0 -3 3v1a2.0026 2.0026 0 0 0 -2 2v2a2.0026 2.0026 0 0 0 2 2v13a3.00328 3.00328 0 0 0 3 3h14a3.00328 3.00328 0 0 0 3-3v-13a2.0026 2.0026 0 0 0 2-2v-2a2.0026 2.0026 0 0 0 -2-2zm-6-1a1.00067 1.00067 0 0 1 1-1h2a1.00067 1.00067 0 0 1 1 1v1h-4zm-12 0a1.00067 1.00067 0 0 1 1-1h2a1.00067 1.00067 0 0 1 1 1v1h-4zm16 20a1.00067 1.00067 0 0 1 -1 1h-14a1.00067 1.00067 0 0 1 -1-1v-13h16zm-18-15v-2h20l.002 2z"/><path d="m17 43h2v2h-2z"/><path d="m21 43h2v2h-2z"/><path d="m25 43h2v2h-2z"/><path d="m17 47h2v2h-2z"/><path d="m21 47h2v2h-2z"/><path d="m25 47h2v2h-2z"/><path d="m17 51h2v2h-2z"/><path d="m21 51h2v2h-2z"/><path d="m25 51h2v2h-2z"/></svg>