<?xml version="1.0" encoding="utf-8"?>
<!-- Generator: Adobe Illustrator 23.0.3, SVG Export Plug-In . SVG Version: 6.00 Build 0)  -->
<svg version="1.1" id="Capa_1" xmlns="http://www.w3.org/2000/svg" xmlns:xlink="http://www.w3.org/1999/xlink" x="0px" y="0px"
	 viewBox="0 0 67.2 63.3" style="enable-background:new 0 0 67.2 63.3;" xml:space="preserve">
<style type="text/css">
	.st0{fill:#FFFFFF;}
	.st1{fill:#F2987A;}
	.st2{fill:#10312B;}
</style>
<g>
	<g>
		<g id="XMLID_18_">
			<g>
				<path class="st0" d="M67.2,49.3L67.2,49.3c0,0.4-0.3,0.7-0.6,0.7H55.3c-0.3,0-0.6-0.3-0.6-0.6v-0.1v-1v-2.5h12.5v2.5V49.3z"/>
				<path class="st1" d="M31.3,27.4c0,0.5-0.4,0.9-0.9,0.9s-0.9-0.4-0.9-0.9c0-2-1.7-3.7-3.8-3.7c-2.1,0-3.8,1.6-3.8,3.7
					c0,0.5-0.4,0.9-0.9,0.9s-0.9-0.4-0.9-0.9c0-3,2.5-5.5,5.6-5.5C28.8,21.9,31.3,24.3,31.3,27.4z"/>
				<path class="st1" d="M46.5,27.4c0,0.5-0.4,0.9-0.9,0.9c-0.5,0-0.9-0.4-0.9-0.9c0-2-1.7-3.7-3.8-3.7s-3.8,1.6-3.8,3.7
					c0,0.5-0.4,0.9-0.9,0.9s-0.9-0.4-0.9-0.9c0-3,2.5-5.5,5.6-5.5C44,21.9,46.5,24.3,46.5,27.4z"/>
				<path class="st0" d="M51.5,63.3H15c-2.7,0-5-1.8-6.6-4.7h49.7C56.5,61.5,54.2,63.3,51.5,63.3z"/>
				<path class="st0" d="M0,45.3h12.5v1.6v1v1v0.4c0,0.3-0.3,0.6-0.6,0.6H5.6h-5c-0.3,0-0.6-0.3-0.6-0.6V49v-1V45.3z"/>
				<path class="st0" d="M49.2,0c0,0.3-8.2,7.5-16,7.5c-7.8,0-16.1-7-16.1-7.1C6.9,6.2,0,17.2,0,29.7v13.5h12.5v-3.7
					c0-0.6,0.5-1,1-1c0.6,0,1,0.5,1,1v9.8c0,0.6-0.2,1.2-0.5,1.6c-0.5,0.6-1.2,1-2.1,1H6.6c0.1,1.7,0.4,3.2,0.9,4.7H59
					c0.5-1.4,0.8-3,0.9-4.7h-4.6c-0.8,0-1.6-0.4-2.1-1c-0.3-0.4-0.6-1-0.6-1.6v-9.8c0-0.6,0.5-1,1-1c0.6,0,1,0.5,1,1v4.2h12.5v-14
					C67.2,16.8,59.9,5.6,49.2,0z M50.1,29.7c-2.1,4.9-7.4,9.6-14.4,15.8l-2.5,2.5l-2.5-2.5c-7.1-6.2-12.3-10.9-14.4-15.8
					c-0.7-1.6-1.1-3.2-1.1-4.9c0-5.6,4.3-9.9,9.9-9.9c3.1,0,6.1,1.4,8.1,3.8c2-2.3,5-3.8,8.1-3.8c5.6,0,9.9,4.3,9.9,9.9
					C51.2,26.5,50.9,28.1,50.1,29.7z"/>
			</g>
		</g>
	</g>
	<g>
		<path class="st2" d="M31.3,27.4c0,0.5-0.4,0.9-0.9,0.9s-0.9-0.4-0.9-0.9c0-2-1.7-3.7-3.8-3.7c-2.1,0-3.8,1.6-3.8,3.7
			c0,0.5-0.4,0.9-0.9,0.9s-0.9-0.4-0.9-0.9c0-3,2.5-5.5,5.6-5.5C28.8,21.9,31.3,24.3,31.3,27.4z"/>
	</g>
	<g>
		<path class="st2" d="M46.5,27.4c0,0.5-0.4,0.9-0.9,0.9c-0.5,0-0.9-0.4-0.9-0.9c0-2-1.7-3.7-3.8-3.7s-3.8,1.6-3.8,3.7
			c0,0.5-0.4,0.9-0.9,0.9s-0.9-0.4-0.9-0.9c0-3,2.5-5.5,5.6-5.5C44,21.9,46.5,24.3,46.5,27.4z"/>
	</g>
</g>
</svg>
