<svg height="512" viewBox="0 0 512 512" width="512" xmlns="http://www.w3.org/2000/svg"><g id="Fill_out_line" data-name="Fill out line"><path d="m400 392h-40l-16-136-14.22-32-10.54-23.72-7.24-16.28-8-80 32-32 56 152 .52 11.02z" fill="#4386c5"/><path d="m320.46 298.23 7.54 101.77a227.51951 227.51951 0 0 1 -49.43994 17.91992q-11.15991 2.625-22.56006 4.13013a225.8442 225.8442 0 0 1 -29.66992 1.94995h-20.66016a227.37777 227.37777 0 0 1 -101.66992-24l7.54-101.77a798.30179 798.30179 0 0 0 -15.54-226.23l64-16v-16l24-16h64l24 16v16l64 16a797.67792 797.67792 0 0 0 -16.75977 128.28q-.58519 11.84985-.81 23.72-.15015 7.61994-.14991 15.26-.00005 29.48987 2.17968 58.97z" fill="#529fe1"/><path d="m120 368-13.77 1.97 2.75-37.22z" fill="#529fe1"/><path d="m184 24v17.37261a54.62737 54.62737 0 0 0 16 38.62739l-40 32v-72z" fill="#4386c5"/><path d="m248 24v17.37261a54.62737 54.62737 0 0 1 -16 38.62739l40 32v-72z" fill="#4386c5"/><path d="m184 24h64v17.37261a54.62737 54.62737 0 0 1 -16 38.62739l-16 16-16-16a54.62737 54.62737 0 0 1 -16-38.62737z" fill="#2676b3"/><path d="m200 112v312h32v-344z" fill="#4386c5"/><path d="m120 368-13.77 1.97-42.23 6.03-40-144 72-160a797.42919 797.42919 0 0 1 16.46 122.56006l-32.46 45.43994 28.98 92.75z" fill="#4386c5"/><path d="m400 392h-40l-16-136-14.22-32h46.22l16.52 11.02z" fill="#2676b3"/><path d="m440 272v168h-176v-168l32-8v-16l24-16h64l24 16v16z" fill="#529fe1"/><path d="m320 232v17.37261a54.62737 54.62737 0 0 0 16 38.62739l-40 32v-72z" fill="#4386c5"/><path d="m408 248v72l-40-32a54.66652 54.66652 0 0 0 16-38.63v-17.37z" fill="#4386c5"/><path d="m384 232v17.37a54.66652 54.66652 0 0 1 -16 38.63l-16 16-16-16a54.64053 54.64053 0 0 1 -16-38.63v-17.37z" fill="#2676b3"/><path d="m336 320v120h32v-152z" fill="#4386c5"/><path d="m488 320v168h-176v-168l32-8v-16l24-16h64l24 16v16z" fill="#529fe1"/><path d="m368 280v17.37261a54.62737 54.62737 0 0 0 16 38.62739l-40 32v-72z" fill="#4386c5"/><path d="m432 280v17.37261a54.62737 54.62737 0 0 1 -16 38.62739l40 32v-72z" fill="#4386c5"/><path d="m368 280h64v17.37261a54.62737 54.62737 0 0 1 -16 38.62739l-16 16-16-16a54.62737 54.62737 0 0 1 -16-38.62737z" fill="#2676b3"/><path d="m384 368v120h32v-152z" fill="#4386c5"/><path d="m267.002 118.24707a8.00023 8.00023 0 0 0 12.998-6.24707v-45.75366l46.59766 11.64941a808.64679 808.64679 0 0 0 -15.69922 129.79125l15.98828.626a792.5929 792.5929 0 0 1 11.49121-106.71851l40.2207 109.17114 15.01367-5.53124-50.10546-136a8.00108 8.00108 0 0 0 -5.56641-4.99561l-57.94043-14.48512v-9.75366a7.99943 7.99943 0 0 0 -3.5625-6.65625l-23.95215-15.96814-.02978-.0199-.01807-.012-.00049.00073a7.96 7.96 0 0 0 -4.43701-1.34444h-64a7.96 7.96 0 0 0 -4.437 1.34448l-.00049-.00073-.01807.012-.02978.0199-23.95216 15.9681a7.99943 7.99943 0 0 0 -3.5625 6.65625v9.75366l-57.94043 14.48511a8.00007 8.00007 0 0 0 -5.35449 4.47852l-72 160a7.99666 7.99666 0 0 0 -.41309 5.42382l40 144a7.99471 7.99471 0 0 0 8.83985 5.77832l32.37963-4.62573-1.49 20.11548a8.001 8.001 0 0 0 4.4004 7.74609 236.537 236.537 0 0 0 105.24413 24.84473h20.668c1.95508 0 3.92872-.0249 5.86719-.07324a8.0004 8.0004 0 0 0 7.79881-7.99756v-327.28369zm-3.002-22.89207-20.51611-16.41335a62.15025 62.15025 0 0 0 12.51611-37.56909v-2.42456l8 5.33325zm-72-63.355h48v9.37256a46.31832 46.31832 0 0 1 -13.65723 32.9707l-10.343 10.343-10.34352-10.34349a46.31947 46.31947 0 0 1 -13.65625-32.97021zm-24 12.28125 8-5.33325v2.42456a62.15172 62.15172 0 0 0 12.51611 37.56933l-20.51611 16.41311zm-135.51758 188.36426 60.52758-134.50708a789.88306 789.88306 0 0 1 11.30933 94.05066l-30.82911 43.161a7.9979 7.9979 0 0 0 -1.126 7.03613l37.19531 119.02393-39.73242 5.67627zm71.59033 57.568-15.25048-48.8014 16.61132-23.25586q.96021 35.99744-1.36084 72.05725zm87.92725-178.21351v303.56738a220.77212 220.77212 0 0 1 -79.62012-20.396l1.34766-18.19422 7.4043-1.05774a7.999 7.999 0 0 0 6.5039-10.30566l-10.56225-33.79906 2.44311-32.99439a805.88136 805.88136 0 0 0 -14.11206-220.92531l46.59546-11.64866v45.75366a8.00047 8.00047 0 0 0 12.99805 6.24707l34.40844-27.52661 5.27951 5.27954-10.34327 10.34326a8.00035 8.00035 0 0 0 -2.34273 5.65674zm32 304h-16v-300.686l16-16z"/><path d="m304 304v-51.71875l8-5.333v2.42432a62.38869 62.38869 0 0 0 10.76953 35.11279l13.24805-8.9707a46.45387 46.45387 0 0 1 -8.01758-26.1421v-9.37256h53.57812l18.42188 12.28125v3.71875h16v-8a7.99943 7.99943 0 0 0 -3.5625-6.65625l-24-16a7.99836 7.99836 0 0 0 -4.4375-1.34375h-64v.01624a7.976 7.976 0 0 0 -4.4375 1.32751l-24 16a7.99943 7.99943 0 0 0 -3.5625 6.65625v9.75366l-25.94043 6.48511a8.00005 8.00005 0 0 0 -6.05957 7.76123v168a8.00008 8.00008 0 0 0 8 8h24v-16h-16v-153.75391l16-3.99987v29.75378z"/><path d="m489.94043 312.23877-25.94043-6.48511v-9.75366a7.99943 7.99943 0 0 0 -3.5625-6.65625l-24-16a7.97821 7.97821 0 0 0 -4.4375-1.32775v-.016h-64v.01648a7.98353 7.98353 0 0 0 -4.4375 1.32727l-24 16a7.99943 7.99943 0 0 0 -3.5625 6.65625v9.75366l-25.94043 6.48511a8.00005 8.00005 0 0 0 -6.05957 7.76123v168a8.00008 8.00008 0 0 0 8 8h176a8.00008 8.00008 0 0 0 8-8v-168a8.00005 8.00005 0 0 0 -6.05957-7.76123zm-49.94043-14.86621v-2.42432l8 5.333v51.07376l-20.50977-16.40723a62.15837 62.15837 0 0 0 12.50977-37.57521zm-32 57.94092v124.68652h-16v-108.68652zm2.3457-24.97266-.00293.00244-10.34277 10.34274-10.34277-10.34278-.00049.00025-.00049-.00074a46.31947 46.31947 0 0 1 -13.65625-32.97017v-9.37256h48v9.37256a46.31861 46.31861 0 0 1 -13.6543 32.96826zm-58.3457-30.05957 8-5.333v2.42432a62.15837 62.15837 0 0 0 12.50977 37.57519l-20.50977 16.40724zm-32 25.96484 16-3.99987v45.75378a8.00047 8.00047 0 0 0 12.998 6.24707l34.4082-27.52661 5.2798 5.27954-10.34327 10.34326a8.00035 8.00035 0 0 0 -2.34273 5.65674v112h-56zm160 153.75391h-56v-127.35449l27.002 21.60156a8.00023 8.00023 0 0 0 12.998-6.24707v-45.75378l16 3.99987z"/></g></svg>