<svg height="512pt" viewBox="0 0 511 512" width="512pt" xmlns="http://www.w3.org/2000/svg"><path d="m427.65625 504.496094h-342.78125c-16.964844 0-30.714844-13.75-30.714844-30.710938v-248.714844l202.105469-98.460937 202.101563 98.460937v248.714844c0 16.960938-13.75 30.710938-30.710938 30.710938zm0 0" fill="#d9edff"/><path d="m458.367188 225.070312v248.714844c0 16.960938-13.746094 30.707032-30.714844 30.707032h-23.511719c16.96875 0 30.714844-13.746094 30.714844-30.707032v-260.171875zm0 0" fill="#b4dbff"/><path d="m342.792969 273.121094c-9.222657-10.632813-22.648438-17.445313-36.835938-17.445313-3.230469 0-6.457031.3125-9.625.933594-1.335937.261719-2.65625.578125-3.960937.953125-10.742188 3.070312-21.238282 10.140625-27.027344 19.824219-1.289062 2.152343-2.375 4.414062-3.480469 6.664062-1.199219 2.445313-1.730469 6.183594-5.085937 6.359375-3.148438.167969-4.28125-3.253906-5.328125-5.585937-3.070313-6.84375-7.1875-12.703125-12.960938-17.542969-8.902343-7.464844-20.296875-11.601562-31.914062-11.601562-14.1875-.003907-27.613281 6.8125-36.835938 17.445312-20.984375 24.191406-11.242187 61.9375 6.8125 85.621094 18.1875 23.867187 46.261719 46.378906 75.269531 54.050781 2.914063.769531 5.976563.769531 8.890626 0 29.007812-7.671875 57.078124-30.1875 75.269531-54.050781 18.050781-23.6875 27.796875-61.429688 6.8125-85.625zm0 0" fill="#e63950"/><path d="m335.976562 358.746094c-18.1875 23.863281-46.257812 46.375-75.265624 54.050781-2.917969.761719-5.976563.761719-8.894532 0-2.261718-.597656-4.527344-1.292969-6.78125-2.066406 26.554688-9.132813 51.71875-29.988281 68.496094-51.984375 18.046875-23.6875 27.796875-61.429688 6.808594-85.628906-6.808594-7.855469-15.910156-13.621094-25.917969-16.09375.636719-.148438 1.269531-.296876 1.90625-.417969 3.167969-.625 6.402344-.933594 9.628906-.933594 14.183594 0 27.605469 6.8125 36.828125 17.453125 20.988282 24.191406 11.25 61.933594-6.808594 85.621094zm0 0" fill="#cc2e43"/><path d="m354.65625 111.945312v-52.71875h103.710938v104.3125zm0 0" fill="#fff5f5"/><path d="m458.367188 59.222656v104.3125l-21.328126-10.605468v-93.707032zm0 0" fill="#efe2dd"/><path d="m465.421875 59.175781h-117.816406c-5.039063 0-9.121094-4.082031-9.121094-9.117187v-33.433594c0-5.039062 4.082031-9.121094 9.121094-9.121094h117.8125c5.039062 0 9.121093 4.082032 9.121093 9.121094v33.433594c0 5.035156-4.082031 9.117187-9.117187 9.117187zm0 0" fill="#0083fd"/><path d="m474.539062 16.621094v33.4375c0 5.03125-4.082031 9.113281-9.117187 9.113281h-22.871094c5.03125 0 9.113281-4.082031 9.113281-9.113281v-33.4375c0-5.03125-4.082031-9.113282-9.113281-9.113282h22.871094c5.035156 0 9.117187 4.082032 9.117187 9.113282zm0 0" fill="#0072fc"/><path d="m481.390625 174.992188-205.410156-102.183594c-11.636719-5.789063-25.3125-5.816406-36.976563-.070313l-207.71875 102.328125c-20.703125 10.199219-29.175781 35.28125-18.894531 55.945313 10.25 20.609375 35.265625 29.003906 55.875 18.75l169.402344-84.269531c11.691406-5.816407 25.433593-5.816407 37.125 0l169.398437 84.269531c20.609375 10.253906 45.625 1.859375 55.875-18.75l.074219-.144531c10.25-20.609376 1.855469-45.625-18.75-55.875zm0 0" fill="#0083fd"/><path d="m502.582031 224.820312c-3.28125-10.425781-10.636719-19.5625-21.191406-24.816406l-205.40625-102.179687c-11.644531-5.792969-25.320313-5.8125-36.976563-.070313l-207.71875 102.320313c-10.636718 5.246093-18.046874 14.410156-21.339843 24.882812-6.09375-19.277343 2.621093-40.667969 21.339843-49.894531l207.71875-102.320312c11.65625-5.746094 25.332032-5.726563 36.976563.066406l205.40625 102.183594c18.621094 9.277343 27.273437 30.597656 21.191406 49.828124zm0 0" fill="#0072fc"/><path d="m305.957031 248.171875c-3.722656 0-7.449219.363281-11.074219 1.074219-1.53125.300781-3.074218.671875-4.574218 1.101562-13.246094 3.785156-24.988282 12.453125-31.40625 23.1875-.898438 1.5-1.683594 3-2.425782 4.476563-3.449218-6.546875-7.78125-11.964844-13.164062-16.480469-10.269531-8.613281-23.316406-13.359375-36.738281-13.359375 0 0 0 0-.003907 0-15.96875 0-31.457031 7.300781-42.5 20.03125-23.050781 26.574219-14.171874 67.953125 6.511719 95.089844 21.386719 28.058593 51.039063 49.273437 79.320313 56.753906 2.082031.550781 4.222656.828125 6.363281.828125s4.28125-.277344 6.363281-.828125c28.28125-7.480469 57.933594-28.695313 79.320313-56.753906 20.683593-27.136719 29.5625-68.515625 6.511719-95.089844-11.042969-12.730469-26.535157-20.03125-42.503907-20.03125zm40.628907 66.953125c-1.792969 13.359375-7.832032 27.601562-16.574219 39.070312-19.140625 25.113282-46.429688 44.789063-71.222657 51.34375-1.652343.4375-3.398437.4375-5.050781 0-24.789062-6.554687-52.082031-26.230468-71.222656-51.34375-8.738281-11.46875-14.78125-25.707031-16.574219-39.070312-1.386718-10.339844-.871094-25.171875 9.464844-37.089844 8.191406-9.441406 19.550781-14.855468 31.164062-14.855468 9.902344 0 19.523438 3.496093 27.097657 9.847656 4.601562 3.859375 8.175781 8.722656 10.933593 14.867187l.269532.613281c1.160156 2.6875 4.246094 9.804688 12.300781 9.394532 2.042969-.105469 7.472656-.390625 10.964844-9.414063.167969-.4375.34375-.890625.460937-1.128906l.324219-.65625c.957031-1.949219 1.859375-3.789063 2.859375-5.464844 4.511719-7.542969 12.976562-13.699219 22.648438-16.460937 1.097656-.3125 2.226562-.585938 3.347656-.804688 2.671875-.527344 5.425781-.792968 8.179687-.792968 11.617188 0 22.976563 5.414062 31.164063 14.859374 10.339844 11.914063 10.855468 26.746094 9.464844 37.085938zm0 0"/><path d="m509.449219 196.65625c-4.179688-12.453125-12.957031-22.53125-24.71875-28.382812l-18.859375-9.378907v-92.234375c8.957031-.246094 16.171875-7.589844 16.171875-16.601562v-33.433594c0-9.167969-7.457031-16.625-16.621094-16.625h-117.816406c-9.167969 0-16.625 7.457031-16.625 16.625v33.433594c0 9.011718 7.214843 16.359375 16.171875 16.601562v33.171875l-67.828125-33.738281c-13.648438-6.792969-29.960938-6.824219-43.636719-.085938l-116.4375 57.359376c-3.714844 1.832031-5.246094 6.332031-3.414062 10.046874 1.832031 3.71875 6.328124 5.246094 10.046874 3.417969l116.4375-57.363281c9.5-4.679688 20.835938-4.65625 30.320313.058594l205.40625 102.183594c8.171875 4.066406 14.269531 11.070312 17.175781 19.722656s2.265625 17.917968-1.796875 26.085937l-.074219.152344c-8.394531 16.867187-28.945312 23.765625-45.816406 15.371094l-169.402344-84.269531c-13.714843-6.824219-30.09375-6.824219-43.808593 0l-169.402344 84.269531c-16.871094 8.390625-37.421875 1.496093-45.8125-15.371094-4.078125-8.195313-4.710937-17.484375-1.78125-26.15625s9.066406-15.675781 17.273437-19.71875l59.773438-29.445313c3.71875-1.832031 5.246094-6.328124 3.414062-10.046874-1.828124-3.714844-6.328124-5.246094-10.046874-3.414063l-59.769532 29.445313c-11.816406 5.820312-20.644531 15.898437-24.859375 28.378906-4.214843 12.480468-3.308593 25.847656 2.558594 37.640625 8.09375 16.265625 24.042969 26.074219 40.988281 27.15625v212.273437c0 21.070313 17.140625 38.214844 38.214844 38.214844h342.78125c21.074219 0 38.21875-17.144531 38.21875-38.214844v-107.554687c0-4.144531-3.359375-7.503907-7.503906-7.503907-4.144532 0-7.503906 3.359376-7.503906 7.503907v107.554687c0 12.796875-10.414063 23.207032-23.210938 23.207032h-342.78125c-12.796875 0-23.210938-10.414063-23.210938-23.207032v-213.640625c3.371094-.84375 6.707032-2.050781 9.941407-3.664062l169.402343-84.269531c9.53125-4.742188 20.910157-4.742188 30.441407 0l169.402343 84.269531c3.261719 1.625 6.617188 2.832031 10.011719 3.679687v71.554688c0 4.144531 3.363281 7.503906 7.503907 7.503906 4.144531 0 7.503906-3.359375 7.503906-7.503906v-70.195313c16.917968-1.105469 32.835937-10.917969 40.914062-27.160156l.074219-.148437c5.847656-11.765626 6.769531-25.097657 2.589844-37.554688zm-58.585938-45.230469-88.703125-44.128906v-40.566406h88.703125zm-103.257812-99.753906c-.894531 0-1.617188-.722656-1.617188-1.613281v-33.433594c0-.894531.726563-1.617188 1.617188-1.617188h117.8125c.894531 0 1.617187.726563 1.617187 1.617188v33.433594c0 .890625-.726562 1.613281-1.617187 1.613281zm0 0"/></svg>