<?xml version="1.0" encoding="utf-8"?>
<!-- Generator: Adobe Illustrator 23.0.3, SVG Export Plug-In . SVG Version: 6.00 Build 0)  -->
<svg version="1.1" id="Capa_1" xmlns="http://www.w3.org/2000/svg" xmlns:xlink="http://www.w3.org/1999/xlink" x="0px" y="0px"
	 viewBox="0 0 195.6 63.3" style="enable-background:new 0 0 195.6 63.3;" xml:space="preserve">
<style type="text/css">
	.st0{fill:#F2987A;}
	.st1{fill:#FFFFFF;}
	.st2{fill:#10312B;}
</style>
<g>
	<g>
		<g>
			<g id="XMLID_19_">
				<g>
					<path class="st0" d="M67.2,49.3L67.2,49.3c0,0.4-0.3,0.7-0.6,0.7H55.2c-0.3,0-0.6-0.3-0.6-0.6v-0.1v-1v-2.5h12.5v2.5V49.3z"/>
					<path class="st1" d="M51.2,24.8c0,1.7-0.4,3.3-1.1,4.9c-2.1,4.9-7.4,9.6-14.4,15.8l-2.5,2.5l-2.5-2.5
						c-7-6.2-12.3-10.9-14.4-15.8c-0.7-1.6-1.1-3.2-1.1-4.9c0-5.6,4.3-9.9,9.9-9.9c3.1,0,6.1,1.4,8.1,3.8c2-2.3,5-3.8,8.1-3.8
						C46.9,14.9,51.2,19.2,51.2,24.8z"/>
					<path class="st0" d="M51.5,63.3H15c-2.7,0-5-1.8-6.6-4.7H58C56.5,61.5,54.1,63.3,51.5,63.3z"/>
					<path class="st0" d="M0,45.3h12.5v1.6v1v1v0.4c0,0.3-0.3,0.6-0.6,0.6H5.5h-5c-0.3,0-0.6-0.3-0.6-0.6V49v-1V45.3z"/>
					<path class="st0" d="M12.5,39.5v3.7H0v-13v-0.5C0,17.2,6.9,6.2,17.1,0.4c0,0.1,8.3,7.1,16.1,7.1c7.8,0,16.1-7.3,16-7.5
						c10.7,5.6,18,16.8,18,29.7v0.5v13.5H54.7v-4.2c0-0.6-0.5-1-1-1c-0.6,0-1,0.5-1,1v5.6v1v3.1c0,0.6,0.2,1.2,0.5,1.6
						c0.5,0.6,1.2,1,2.1,1h4.6c-0.1,1.7-0.4,3.2-0.9,4.6H7.5c-0.5-1.4-0.8-3-0.9-4.6h5.3c0.8,0,1.6-0.4,2.1-1c0.3-0.4,0.5-1,0.5-1.6
						v-3.6v-1v-5.1c0-0.6-0.5-1-1-1S12.5,39,12.5,39.5z M50.1,29.7c0.7-1.6,1.1-3.2,1.1-4.9c0-5.6-4.3-9.9-9.9-9.9
						c-3.1,0-6.1,1.4-8.1,3.8c-2-2.3-5-3.8-8.1-3.8c-5.6,0-9.9,4.3-9.9,9.9c0,1.7,0.4,3.3,1.1,4.9c2.1,4.9,7.4,9.6,14.4,15.8
						l2.5,2.5l2.5-2.5C42.7,39.3,48,34.6,50.1,29.7z"/>
				</g>
			</g>
		</g>
		<g>
			<path class="st2" d="M30.4,28.3c-0.5,0-0.9-0.4-0.9-0.9c0-2-1.7-3.7-3.8-3.7S22,25.3,22,27.4c0,0.5-0.4,0.9-0.9,0.9
				c-0.5,0-0.9-0.4-0.9-0.9c0-3,2.5-5.5,5.6-5.5c3.1,0,5.6,2.5,5.6,5.5C31.3,27.9,30.9,28.3,30.4,28.3z"/>
		</g>
		<g>
			<path class="st2" d="M45.5,28.3c-0.5,0-0.9-0.4-0.9-0.9c0-2-1.7-3.7-3.8-3.7s-3.8,1.6-3.8,3.7c0,0.5-0.4,0.9-0.9,0.9
				c-0.5,0-0.9-0.4-0.9-0.9c0-3,2.5-5.5,5.6-5.5s5.6,2.5,5.6,5.5C46.4,27.9,46,28.3,45.5,28.3z"/>
		</g>
	</g>
	<g>
		<g id="favorite_18_">
			<path class="st0" d="M162.3,54.1l-1.2-1.2c-4.5-4-7.4-6.7-7.4-9.9c0-2.7,2.1-4.8,4.8-4.8c1.5,0,2.9,0.7,3.9,1.8
				c1-1.1,2.4-1.8,3.9-1.8c2.7,0,4.8,2.1,4.8,4.8c0,3.3-2.9,6-7.4,9.9L162.3,54.1z"/>
		</g>
	</g>
	<g>
		<path class="st2" d="M88.5,31.3c-1.1,0.2-2.1,0.3-3.4,0.3c-5.7,0-8.7-2.7-8.7-7.7c0-5.2,3-7.8,8.6-7.8c2.3,0,3.7,0.4,5.1,1
			L89,20.2c-1.7-0.4-2.3-0.5-3.9-0.6c-2.6,0-4.3,1.3-4.3,4.1s1.8,4.3,4.7,4.3c1.4,0,2.3-0.1,3.7-0.5c0.3,1.1,0.6,2.1,0.9,3.2
			C89.6,31,89,31.2,88.5,31.3z"/>
		<path class="st2" d="M100,31.7c-5.5,0-8.2-3-8.2-7.8c0-5.1,3.3-7.8,8.7-7.8c5.7,0,8.2,3.1,8.2,7.8C108.7,28.9,105.6,31.7,100,31.7
			z M100.3,19.4c-3,0-4.1,1.8-4.1,4.4s1.2,4.5,4,4.5c3.1,0,4.2-1.8,4.2-4.4C104.3,21.2,103.1,19.4,100.3,19.4z"/>
		<path class="st2" d="M120.3,29l-2.2-2.5h-1.4v4.9h-4.3V16.2h6.2c3.5,0,6.2,1.6,6.2,5.1c0,1.6-0.7,3.2-2.3,4.1
			c0.4,0.4,1.3,1.2,1.3,1.2c0.9,0.9,1.5,1.3,3.4,1.7l-0.8,3.2C123.4,31.6,121.7,30.7,120.3,29z M117.5,23.5c2.1,0,2.8-0.7,2.8-1.9
			c0-1.2-0.7-1.9-2.2-1.9h-1.4v3.8H117.5z"/>
		<path class="st2" d="M133.3,16.2h5.7l5.1,15.2h-4.6l-0.9-3.2H133l-1.1,3.2h-4.5L133.3,16.2z M137.6,25l-1.6-5.7l-1.9,5.7H137.6z"
			/>
		<path class="st2" d="M144.9,28l7.4-8.3h-7.4v-3.5h12.8v2.6l-8,9h8v3.5h-12.8V28z"/>
		<path class="st2" d="M168.2,31.7c-5.5,0-8.2-3-8.2-7.8c0-5.1,3.3-7.8,8.7-7.8c5.7,0,8.2,3.1,8.2,7.8
			C176.8,28.9,173.7,31.7,168.2,31.7z M168.4,19.4c-3,0-4.1,1.8-4.1,4.4s1.2,4.5,4,4.5c3.1,0,4.2-1.8,4.2-4.4
			C172.4,21.2,171.2,19.4,168.4,19.4z M165.4,11.9l6.6-3.4l1.5,3.2l-6.8,2.9L165.4,11.9z"/>
		<path class="st2" d="M190.7,31.4l-6.2-9.1l0.2,1.9v7.2h-4.3V16.2h4.7l6.2,9.3l-0.1-1.6v-7.7h4.3v15.2H190.7z"/>
	</g>
	<g>
		<path class="st0" d="M80.8,38.4h5.7l5.1,15.2h-4.6L86,50.3h-5.5l-1.1,3.2H75L80.8,38.4z M85.1,47.2l-1.6-5.7l-1.9,5.7H85.1z"/>
		<path class="st0" d="M101.1,53.6h-7.4V38.4h6.7c3.8,0,5.9,1.4,5.9,4.4c0,1.3-0.7,2.1-1.5,2.6c1.2,0.4,2.5,1.5,2.5,3.4
			C107.5,51.6,105.7,53.6,101.1,53.6z M100,41.7H98v3.1h2.1c1.4,0,1.9-0.7,1.9-1.6C102.1,42.4,101.6,41.7,100,41.7z M100.8,47.3H98
			v3.1h3c1.5,0,2-0.7,2-1.6C103.1,47.9,102.6,47.3,100.8,47.3z"/>
		<path class="st0" d="M119.2,51.2l-2.2-2.5h-1.4v4.9h-4.3V38.4h6.2c3.5,0,6.2,1.6,6.2,5.1c0,1.6-0.7,3.2-2.3,4.1
			c0.4,0.4,1.3,1.2,1.3,1.2c0.9,0.9,1.5,1.3,3.4,1.7l-0.8,3.2C122.3,53.7,120.6,52.8,119.2,51.2z M116.4,45.6c2.1,0,2.8-0.7,2.8-1.9
			c0-1.2-0.7-1.9-2.2-1.9h-1.4v3.8H116.4z"/>
		<path class="st0" d="M128.9,53.6V38.4h4.3v15.2H128.9z"/>
		<path class="st0" d="M148.9,53.4c-1.2,0.3-2.2,0.4-3.5,0.4c-5.2,0-8.6-2.4-8.6-7.7c0-5.4,3.2-7.8,8.8-7.8c2.2,0,3.4,0.4,4.9,1
			l-1.2,3.1c-1.7-0.4-2.3-0.6-3.8-0.6c-2.6,0-4.4,1.1-4.4,4.1c0,3,2,4.3,4.7,4.3c0.2,0,0.4,0,0.6,0V46h4.3v6.8
			C150.1,53.1,149.5,53.2,148.9,53.4z"/>
	</g>
</g>
</svg>
